<svg xmlns="http://www.w3.org/2000/svg" version="1.1" xmlns:xlink="http://www.w3.org/1999/xlink" xmlns:svgjs="http://svgjs.dev/svgjs" width="1500" height="1500" viewBox="0 0 1500 1500"><rect width="1500" height="1500" fill="#ffffff"></rect><g transform="matrix(0.6666666666666666,0,0,0.6666666666666666,249.39393939393943,651.8302737849058)"><svg viewBox="0 0 396 77" data-background-color="#ffffff" preserveAspectRatio="xMidYMid meet" height="291" width="1500" xmlns="http://www.w3.org/2000/svg" xmlns:xlink="http://www.w3.org/1999/xlink"><g id="tight-bounds" transform="matrix(1,0,0,1,0.2400000000000091,0.46427277609410567)"><svg viewBox="0 0 395.52 76.0714544478118" height="76.0714544478118" width="395.52"><g><svg viewBox="0 0 524.4253319295653 100.86417311174786" height="76.0714544478118" width="395.52"><g><rect width="6.58179104417082" height="87.58104756446991" x="105.09372139803632" y="6.641562773638974" fill="#556970" opacity="1" stroke-width="0" stroke="transparent" fill-opacity="1" class="rect-yte-0" data-fill-palette-color="primary" rx="1%" id="yte-0" data-palette-color="#556970"></rect></g><g transform="matrix(1,0,0,1,128.9053319295653,13.939983404011464)"><svg viewBox="0 0 395.52 72.98420630372493" height="72.98420630372493" width="395.52"><g id="textblocktransform"><svg viewBox="0 0 395.52 72.98420630372493" height="72.98420630372493" width="395.52" id="textblock"><g><svg viewBox="0 0 395.52 72.98420630372493" height="72.98420630372493" width="395.52"><g transform="matrix(1,0,0,1,0,0)"><svg width="395.52" viewBox="2.1 -39.06 213 39.300000000000004" height="72.98420630372493" data-palette-color="#556970"><path d="M4.81-5.03L4.81-5.03Q5.62-6.01 5.88-7.52 6.15-9.03 6.15-11.16L6.15-11.16 6.15-18.21Q6.13-18.65 6.02-19.01 5.91-19.36 5.65-19.62 5.4-19.87 4.96-20.02 4.52-20.17 3.86-20.17L3.86-20.17Q3.49-20.17 3.06-20.12 2.64-20.07 2.1-19.97L2.1-19.97Q2.22-20.68 2.27-21.51 2.32-22.34 2.32-23.19L2.32-23.19Q2.32-23.97 2.27-24.73 2.22-25.49 2.1-26.12L2.1-26.12Q2.34-25.95 2.71-25.84 3.08-25.73 3.44-25.66 3.81-25.59 4.13-25.55 4.44-25.51 4.61-25.51L4.61-25.51Q5.32-25.51 5.68-26.06 6.03-26.61 6.03-27.98L6.03-27.98Q6.03-28.2 6.02-28.59 6.01-28.98 5.98-29.39 5.96-29.81 5.9-30.18 5.83-30.54 5.74-30.74L5.74-30.74Q5.93-30.69 6.13-30.69 6.32-30.69 6.54-30.69L6.54-30.69Q7.79-30.69 9.17-31.1 10.55-31.52 11.85-32.01 13.16-32.5 14.28-32.91 15.41-33.33 16.14-33.33L16.14-33.33Q15.94-32.74 15.82-32.03 15.7-31.32 15.63-30.62 15.55-29.91 15.52-29.24 15.48-28.56 15.48-28.1L15.48-28.1Q15.48-27.29 15.67-26.79 15.87-26.29 16.37-26.01 16.87-25.73 17.76-25.62 18.65-25.51 20.04-25.51L20.04-25.51Q20.63-25.51 21.42-25.52 22.22-25.54 23.07-25.6 23.93-25.66 24.77-25.78 25.61-25.9 26.32-26.12L26.32-26.12Q26.07-25.49 25.98-24.63 25.88-23.78 25.88-22.88L25.88-22.88Q25.88-21.85 25.98-20.97 26.07-20.09 26.32-19.41L26.32-19.41Q25.49-19.48 24.5-19.58 23.51-19.68 22.53-19.76 21.56-19.85 20.73-19.91 19.9-19.97 19.38-19.97L19.38-19.97Q18.16-19.97 17.37-19.86 16.58-19.75 16.11-19.52 15.65-19.29 15.47-18.93 15.28-18.58 15.28-18.12L15.28-18.12 15.28-11.57Q15.28-10.62 15.39-9.56 15.5-8.5 15.8-7.59 16.09-6.69 16.6-6.09 17.11-5.49 17.92-5.49L17.92-5.49Q18.8-5.49 19.4-5.85 20-6.2 20.36-6.84 20.73-7.47 20.89-8.34 21.04-9.2 21.04-10.25L21.04-10.25Q21.58-10.13 22.49-10.01 23.39-9.89 24.34-9.89L24.34-9.89Q25.27-9.89 26.09-10.01 26.9-10.13 27.34-10.25L27.34-10.25Q27.15-9.72 27.06-8.75 26.98-7.79 26.98-6.69L26.98-6.69Q26.98-5.59 27.05-4.64 27.12-3.69 27.34-3.22L27.34-3.22 27.1-3.22Q26.2-3.22 25.16-2.94 24.12-2.66 23.17-2.2 22.22-1.73 21.42-1.16 20.63-0.59 20.21 0L20.21 0Q20.02-0.15 19.47-0.26 18.92-0.37 18.2-0.45 17.48-0.54 16.67-0.57 15.87-0.61 15.14-0.61L15.14-0.61Q14.4-0.61 13.61-0.57 12.82-0.54 12.06-0.45 11.3-0.37 10.68-0.26 10.06-0.15 9.69 0L9.69 0Q9.47-0.85 9.02-1.67 8.57-2.49 7.93-3.17 7.3-3.86 6.51-4.35 5.71-4.83 4.81-5.03ZM31.86 0L31.86 0Q32.05-0.63 32.13-1.51 32.2-2.39 32.2-3.25L32.2-3.25Q32.2-4.03 32.1-4.81 32-5.59 31.86-6.35L31.86-6.35Q33.23-6.35 34.12-6.47 35.01-6.59 35.54-6.9 36.08-7.2 36.29-7.76 36.5-8.33 36.5-9.2L36.5-9.2 36.5-15.99Q36.47-17.04 36.23-17.66 35.98-18.29 35.56-18.62 35.13-18.95 34.51-19.06 33.88-19.17 33.1-19.17L33.1-19.17 32.35-19.17Q32.54-19.65 32.69-20.52 32.83-21.39 32.83-22.34L32.83-22.34Q32.83-23.27 32.7-24.11 32.57-24.95 32.35-25.46L32.35-25.46Q33.05-25.37 34.04-25.32 35.03-25.27 36.18-25.27L36.18-25.27Q37.35-25.27 38.61-25.33 39.87-25.39 41.06-25.51 42.26-25.63 43.32-25.85 44.38-26.07 45.16-26.37L45.16-26.37Q44.99-25.88 44.93-25.38 44.87-24.88 44.87-24.34L44.87-24.34Q44.87-23.58 44.98-22.83 45.09-22.07 45.21-21.36L45.21-21.36Q46.26-21.66 47.42-22.2 48.58-22.75 49.59-23.44 50.61-24.12 51.32-24.88 52.02-25.63 52.19-26.37L52.19-26.37Q52.9-25.95 54.04-25.73 55.17-25.51 56.64-25.51L56.64-25.51Q57.22-25.51 57.86-25.55 58.49-25.59 59.09-25.67 59.69-25.76 60.19-25.93 60.69-26.1 61.01-26.37L61.01-26.37Q60.81-25.88 60.7-25.15 60.59-24.41 60.53-23.57 60.47-22.73 60.45-21.86 60.42-21 60.42-20.24L60.42-20.24Q60.42-19.48 60.47-18.52 60.52-17.55 60.59-16.66 60.67-15.77 60.78-15.11 60.89-14.45 61.01-14.28L61.01-14.28Q60.2-14.48 58.99-14.61 57.79-14.75 56.47-14.75L56.47-14.75Q55.15-14.75 53.98-14.61 52.81-14.48 52.07-14.28L52.07-14.28Q52.07-16.89 51.47-17.94 50.88-18.99 49.7-18.99L49.7-18.99Q49.12-18.99 48.42-18.66 47.73-18.33 47.13-17.7 46.53-17.07 46.09-16.15 45.65-15.23 45.58-14.06L45.58-14.06 45.6-9.2Q45.6-8.33 46.1-7.76 46.6-7.2 47.48-6.9 48.36-6.59 49.58-6.47 50.8-6.35 52.24-6.35L52.24-6.35Q52.1-5.83 52.01-5.08 51.93-4.32 51.93-3.47L51.93-3.47Q51.93-2.54 52-1.6 52.07-0.66 52.24 0L52.24 0Q51.46-0.12 50.31-0.23 49.17-0.34 47.8-0.43 46.43-0.51 44.89-0.56 43.36-0.61 41.82-0.61L41.82-0.61Q40.65-0.61 39.19-0.57 37.74-0.54 36.33-0.45 34.91-0.37 33.7-0.26 32.49-0.15 31.86 0ZM65.52-28.93L65.52-28.93Q65.67-29.2 65.8-29.74 65.94-30.27 66.02-30.98 66.11-31.69 66.17-32.51 66.23-33.33 66.23-34.18L66.23-34.18Q66.23-34.96 66.17-35.71 66.11-36.45 66.01-37.1 65.91-37.74 65.78-38.26 65.64-38.77 65.5-39.06L65.5-39.06Q65.94-38.92 66.66-38.78 67.38-38.65 68.27-38.55 69.16-38.45 70.15-38.39 71.14-38.33 72.09-38.33L72.09-38.33Q72.97-38.33 74.01-38.37 75.04-38.4 76.01-38.5 76.97-38.6 77.75-38.73 78.54-38.87 78.93-39.06L78.93-39.06Q78.78-38.75 78.67-38.23 78.56-37.72 78.47-37.07 78.39-36.43 78.35-35.68 78.32-34.94 78.32-34.18L78.32-34.18Q78.32-33.4 78.35-32.64 78.39-31.88 78.47-31.19 78.56-30.49 78.67-29.91 78.78-29.32 78.93-28.93L78.93-28.93Q78.54-29.05 77.79-29.14 77.05-29.22 76.11-29.28 75.17-29.35 74.14-29.38 73.12-29.42 72.16-29.42L72.16-29.42Q71.21-29.42 70.21-29.38 69.21-29.35 68.29-29.28 67.38-29.22 66.65-29.14 65.91-29.05 65.52-28.93ZM63.57 0L63.57 0Q63.76-0.63 63.84-1.51 63.91-2.39 63.91-3.25L63.91-3.25Q63.91-4.03 63.81-4.81 63.72-5.59 63.57-6.35L63.57-6.35Q64.94-6.35 65.97-6.47 67.01-6.59 67.71-6.9 68.4-7.2 68.76-7.76 69.11-8.33 69.11-9.2L69.11-9.2 69.11-15.99Q69.09-17.04 68.73-17.66 68.38-18.29 67.79-18.62 67.21-18.95 66.44-19.06 65.67-19.17 64.81-19.17L64.81-19.17 64.03-19.17Q64.23-19.65 64.37-20.52 64.52-21.39 64.52-22.34L64.52-22.34Q64.52-23.27 64.39-24.13 64.25-25 64.03-25.51L64.03-25.51Q66.11-25.42 67.9-25.37 69.7-25.32 71.28-25.32L71.28-25.32Q74.24-25.32 76.39-25.55 78.54-25.78 80.07-26.37L80.07-26.37Q79.58-25.42 79.22-24.55 78.85-23.68 78.6-22.72 78.34-21.75 78.21-20.61 78.07-19.46 78.07-17.97L78.07-17.97 78.05-9.2Q78.05-8.33 78.43-7.76 78.8-7.2 79.46-6.9 80.12-6.59 81.03-6.47 81.93-6.35 82.98-6.35L82.98-6.35Q82.83-5.83 82.75-5.08 82.66-4.32 82.66-3.47L82.66-3.47Q82.66-2.54 82.72-1.6 82.78-0.66 82.98 0L82.98 0Q82.32-0.12 81.17-0.23 80.02-0.34 78.67-0.43 77.31-0.51 75.84-0.56 74.36-0.61 73.04-0.61L73.04-0.61Q71.87-0.61 70.49-0.57 69.11-0.54 67.78-0.45 66.45-0.37 65.33-0.26 64.2-0.15 63.57 0ZM88.01-5.03L88.01-5.03Q88.81-6.01 89.08-7.52 89.35-9.03 89.35-11.16L89.35-11.16 89.35-18.21Q89.32-18.65 89.21-19.01 89.1-19.36 88.85-19.62 88.59-19.87 88.15-20.02 87.71-20.17 87.05-20.17L87.05-20.17Q86.69-20.17 86.26-20.12 85.83-20.07 85.3-19.97L85.3-19.97Q85.42-20.68 85.47-21.51 85.51-22.34 85.51-23.19L85.51-23.19Q85.51-23.97 85.47-24.73 85.42-25.49 85.3-26.12L85.3-26.12Q85.54-25.95 85.91-25.84 86.27-25.73 86.64-25.66 87-25.59 87.32-25.55 87.64-25.51 87.81-25.51L87.81-25.51Q88.52-25.51 88.87-26.06 89.23-26.61 89.23-27.98L89.23-27.98Q89.23-28.2 89.21-28.59 89.2-28.98 89.18-29.39 89.15-29.81 89.09-30.18 89.03-30.54 88.93-30.74L88.93-30.74Q89.13-30.69 89.32-30.69 89.52-30.69 89.74-30.69L89.74-30.69Q90.98-30.69 92.36-31.1 93.74-31.52 95.05-32.01 96.35-32.5 97.48-32.91 98.6-33.33 99.33-33.33L99.33-33.33Q99.14-32.74 99.02-32.03 98.89-31.32 98.82-30.62 98.75-29.91 98.71-29.24 98.67-28.56 98.67-28.1L98.67-28.1Q98.67-27.29 98.87-26.79 99.06-26.29 99.57-26.01 100.07-25.73 100.96-25.62 101.85-25.51 103.24-25.51L103.24-25.51Q103.83-25.51 104.62-25.52 105.41-25.54 106.27-25.6 107.12-25.66 107.96-25.78 108.81-25.9 109.51-26.12L109.51-26.12Q109.27-25.49 109.17-24.63 109.07-23.78 109.07-22.88L109.07-22.88Q109.07-21.85 109.17-20.97 109.27-20.09 109.51-19.41L109.51-19.41Q108.68-19.48 107.7-19.58 106.71-19.68 105.73-19.76 104.75-19.85 103.92-19.91 103.09-19.97 102.58-19.97L102.58-19.97Q101.36-19.97 100.57-19.86 99.77-19.75 99.31-19.52 98.85-19.29 98.66-18.93 98.48-18.58 98.48-18.12L98.48-18.12 98.48-11.57Q98.48-10.62 98.59-9.56 98.7-8.5 98.99-7.59 99.28-6.69 99.8-6.09 100.31-5.49 101.12-5.49L101.12-5.49Q101.99-5.49 102.59-5.85 103.19-6.2 103.56-6.84 103.92-7.47 104.08-8.34 104.24-9.2 104.24-10.25L104.24-10.25Q104.78-10.13 105.68-10.01 106.58-9.89 107.54-9.89L107.54-9.89Q108.46-9.89 109.28-10.01 110.1-10.13 110.54-10.25L110.54-10.25Q110.34-9.72 110.26-8.75 110.17-7.79 110.17-6.69L110.17-6.69Q110.17-5.59 110.25-4.64 110.32-3.69 110.54-3.22L110.54-3.22 110.3-3.22Q109.39-3.22 108.35-2.94 107.32-2.66 106.36-2.2 105.41-1.73 104.62-1.16 103.83-0.59 103.41 0L103.41 0Q103.22-0.15 102.67-0.26 102.12-0.37 101.4-0.45 100.68-0.54 99.87-0.57 99.06-0.61 98.33-0.61L98.33-0.61Q97.6-0.61 96.81-0.57 96.01-0.54 95.26-0.45 94.5-0.37 93.88-0.26 93.25-0.15 92.89 0L92.89 0Q92.67-0.85 92.22-1.67 91.76-2.49 91.13-3.17 90.5-3.86 89.7-4.35 88.91-4.83 88.01-5.03ZM115.03-4.05L115.03-4.05Q115.52-4.64 115.79-5.69 116.05-6.74 116.19-7.97 116.32-9.2 116.36-10.45 116.4-11.69 116.4-12.65L116.4-12.65Q116.4-13.65 116.32-14.92 116.25-16.19 116.09-17.4 115.93-18.6 115.68-19.58 115.42-20.56 115.05-21L115.05-21Q116.13-21 117.42-21.55 118.72-22.09 119.88-22.91 121.03-23.73 121.89-24.66 122.74-25.59 122.96-26.37L122.96-26.37Q124.31-25.9 126.14-25.71 127.97-25.51 130.68-25.51L130.68-25.51Q132.58-25.51 133.83-25.73 135.07-25.95 135.85-26.37L135.85-26.37Q136.27-25.51 137.23-24.83 138.2-24.15 139.33-23.66 140.47-23.17 141.6-22.89 142.74-22.61 143.47-22.58L143.47-22.58Q143.28-22.17 143.12-21.68 142.96-21.19 142.85-20.53 142.74-19.87 142.68-18.98 142.62-18.09 142.62-16.89L142.62-16.89Q142.62-16.06 142.65-15.28 142.69-14.5 142.76-13.84 142.84-13.18 142.92-12.68 143.01-12.18 143.11-11.94L143.11-11.94Q142.49-11.99 141.47-12.02 140.44-12.06 139.22-12.1 138-12.13 136.67-12.15 135.34-12.16 134.15-12.16L134.15-12.16Q132.73-12.16 131.33-12.15 129.92-12.13 128.43-12.13L128.43-12.13Q127.19-12.13 126.45-11.91 125.72-11.69 125.34-11.32 124.97-10.94 124.86-10.4 124.75-9.86 124.75-9.23L124.75-9.23Q124.75-8.28 125.21-7.5 125.67-6.71 126.48-6.16 127.28-5.62 128.38-5.31 129.48-5 130.73-5L130.73-5Q131.75-5 132.36-5.31 132.97-5.62 133.3-6.13 133.63-6.64 133.73-7.32 133.83-8.01 133.83-8.79L133.83-8.79Q134.12-8.69 134.71-8.62 135.29-8.54 135.98-8.51 136.66-8.47 137.36-8.45 138.05-8.42 138.56-8.42L138.56-8.42Q139.08-8.42 139.74-8.45 140.4-8.47 141.04-8.51 141.69-8.54 142.25-8.62 142.81-8.69 143.15-8.79L143.15-8.79Q143.11-8.52 143.04-8.07 142.98-7.62 142.95-7.1 142.91-6.59 142.89-6.08 142.86-5.57 142.86-5.22L142.86-5.22Q142.86-4.03 142.95-3.31 143.03-2.59 143.23-2.03L143.23-2.03 142.79-2.03Q141.79-2.03 140.74-1.84 139.69-1.66 138.71-1.35 137.73-1.05 136.88-0.63 136.03-0.22 135.41 0.24L135.41 0.24Q135.07 0.02 134.47-0.13 133.88-0.29 133.16-0.4 132.44-0.51 131.64-0.56 130.85-0.61 130.12-0.61L130.12-0.61Q129.24-0.61 128.29-0.54 127.33-0.46 126.47-0.33 125.6-0.2 124.89-0.05 124.18 0.1 123.79 0.24L123.79 0.24Q123.57-0.39 122.66-1.15 121.74-1.9 120.52-2.55 119.3-3.2 117.93-3.64 116.57-4.08 115.44-4.08L115.44-4.08Q115.32-4.08 115.22-4.06 115.13-4.05 115.03-4.05ZM124.77-16.55L131.26-16.55Q132.24-16.55 132.81-16.63 133.39-16.7 133.69-16.92 134-17.14 134.08-17.52 134.17-17.9 134.17-18.53L134.17-18.53Q134.17-19.7 133.17-20.43 132.17-21.17 130.04-21.17L130.04-21.17Q128.73-21.17 127.77-20.95 126.82-20.73 126.17-20.19 125.53-19.65 125.19-18.77 124.84-17.9 124.77-16.55L124.77-16.55ZM149.65-5.03L149.65-5.03Q150.43-6.01 150.72-7.52 151.01-9.03 150.99-11.16L150.99-11.16 150.94-15.99Q150.92-17.04 150.7-17.66 150.48-18.29 150.06-18.62 149.65-18.95 149.04-19.06 148.43-19.17 147.64-19.17L147.64-19.17 146.89-19.17Q147.08-19.65 147.23-20.52 147.38-21.39 147.38-22.34L147.38-22.34Q147.38-23.27 147.24-24.13 147.11-25 146.89-25.51L146.89-25.51Q147.64-25.39 148.84-25.34 150.04-25.29 151.48-25.29L151.48-25.29Q152.84-25.29 154.32-25.35 155.8-25.42 157.17-25.54 158.53-25.66 159.7-25.87 160.88-26.07 161.66-26.37L161.66-26.37Q161.17-25.42 160.86-24.21 160.56-23 160.39-21.63 160.22-20.26 160.17-18.79 160.12-17.31 160.12-15.82L160.12-15.82 160.12-11.57Q160.12-10.62 160.24-9.74 160.36-8.86 160.73-8.17 161.1-7.47 161.76-7.06 162.41-6.64 163.49-6.64L163.49-6.64Q164.59-6.64 165.72-6.86 166.86-7.08 167.8-7.63 168.74-8.18 169.32-9.11 169.91-10.03 169.91-11.43L169.91-11.43 169.91-15.99Q169.88-16.92 169.75-17.53 169.62-18.14 169.23-18.51 168.84-18.87 168.14-19.02 167.44-19.17 166.27-19.17L166.27-19.17 165.76-19.17Q165.95-19.65 166.1-20.52 166.25-21.39 166.25-22.34L166.25-22.34Q166.25-23.27 166.11-24.13 165.98-25 165.76-25.51L165.76-25.51Q166.52-25.39 167.71-25.34 168.91-25.29 170.35-25.29L170.35-25.29Q171.72-25.29 173.19-25.35 174.67-25.42 176.04-25.54 177.4-25.66 178.58-25.87 179.75-26.07 180.53-26.37L180.53-26.37Q180.02-25.78 179.7-24.96 179.38-24.15 179.22-23.16 179.06-22.17 179.02-21.04 178.97-19.92 178.97-18.77L178.97-18.77Q178.97-18.02 178.98-17.27 178.99-16.53 178.99-15.82L178.99-15.82 178.97-9.52Q178.97-8.52 179.03-7.9 179.09-7.28 179.46-6.93 179.82-6.59 180.61-6.47 181.41-6.35 182.87-6.35L182.87-6.35Q182.68-5.79 182.57-4.97 182.46-4.15 182.46-3.32L182.46-3.32Q182.46-2.39 182.54-1.48 182.63-0.56 182.87 0L182.87 0Q182.29-0.27 180.97-0.44 179.65-0.61 178.09-0.61L178.09-0.61Q176.33-0.61 174.89-0.44 173.45-0.27 172.67 0L172.67 0Q172.67-0.85 172.51-1.51 172.35-2.17 172.11-2.69 171.86-3.2 171.55-3.56 171.23-3.93 170.91-4.2L170.91-4.2Q169.88-4 168.93-3.54 167.98-3.08 167.19-2.48 166.39-1.88 165.83-1.22 165.27-0.56 165.05 0L165.05 0Q164.86-0.15 164.31-0.26 163.76-0.37 163.04-0.45 162.32-0.54 161.51-0.57 160.71-0.61 159.97-0.61L159.97-0.61Q159.24-0.61 158.45-0.57 157.65-0.54 156.9-0.45 156.14-0.37 155.52-0.26 154.89-0.15 154.53 0L154.53 0Q154.31-0.85 153.86-1.67 153.41-2.49 152.77-3.17 152.14-3.86 151.34-4.35 150.55-4.83 149.65-5.03ZM185.95 0L185.95 0Q186.14-0.63 186.22-1.51 186.29-2.39 186.29-3.25L186.29-3.25Q186.29-4.03 186.19-4.81 186.09-5.59 185.95-6.35L185.95-6.35Q187.31-6.35 188.21-6.47 189.1-6.59 189.63-6.9 190.17-7.2 190.38-7.76 190.59-8.33 190.59-9.2L190.59-9.2 190.59-15.99Q190.56-17.04 190.32-17.66 190.07-18.29 189.65-18.62 189.22-18.95 188.6-19.06 187.97-19.17 187.19-19.17L187.19-19.17 186.44-19.17Q186.63-19.65 186.78-20.52 186.92-21.39 186.92-22.34L186.92-22.34Q186.92-23.27 186.79-24.11 186.65-24.95 186.44-25.46L186.44-25.46Q187.14-25.37 188.13-25.32 189.12-25.27 190.27-25.27L190.27-25.27Q191.44-25.27 192.7-25.33 193.95-25.39 195.15-25.51 196.35-25.63 197.41-25.85 198.47-26.07 199.25-26.37L199.25-26.37Q199.08-25.88 199.02-25.38 198.96-24.88 198.96-24.34L198.96-24.34Q198.96-23.58 199.07-22.83 199.18-22.07 199.3-21.36L199.3-21.36Q200.35-21.66 201.51-22.2 202.67-22.75 203.68-23.44 204.7-24.12 205.4-24.88 206.11-25.63 206.28-26.37L206.28-26.37Q206.99-25.95 208.13-25.73 209.26-25.51 210.73-25.51L210.73-25.51Q211.31-25.51 211.95-25.55 212.58-25.59 213.18-25.67 213.78-25.76 214.28-25.93 214.78-26.1 215.1-26.37L215.1-26.37Q214.9-25.88 214.79-25.15 214.68-24.41 214.62-23.57 214.56-22.73 214.54-21.86 214.51-21 214.51-20.24L214.51-20.24Q214.51-19.48 214.56-18.52 214.61-17.55 214.68-16.66 214.76-15.77 214.87-15.11 214.98-14.45 215.1-14.28L215.1-14.28Q214.29-14.48 213.08-14.61 211.87-14.75 210.56-14.75L210.56-14.75Q209.24-14.75 208.07-14.61 206.89-14.48 206.16-14.28L206.16-14.28Q206.16-16.89 205.56-17.94 204.97-18.99 203.79-18.99L203.79-18.99Q203.21-18.99 202.51-18.66 201.82-18.33 201.22-17.7 200.62-17.07 200.18-16.15 199.74-15.23 199.67-14.06L199.67-14.06 199.69-9.2Q199.69-8.33 200.19-7.76 200.69-7.2 201.57-6.9 202.45-6.59 203.67-6.47 204.89-6.35 206.33-6.35L206.33-6.35Q206.19-5.83 206.1-5.08 206.02-4.32 206.02-3.47L206.02-3.47Q206.02-2.54 206.09-1.6 206.16-0.66 206.33 0L206.33 0Q205.55-0.12 204.4-0.23 203.26-0.34 201.89-0.43 200.52-0.51 198.98-0.56 197.45-0.61 195.91-0.61L195.91-0.61Q194.74-0.61 193.28-0.57 191.83-0.54 190.41-0.45 189-0.37 187.79-0.26 186.58-0.15 185.95 0Z" opacity="1" transform="matrix(1,0,0,1,0,0)" fill="#556970" class="wordmark-text-0" data-fill-palette-color="primary" id="text-0"></path></svg></g></svg></g></svg></g></svg></g><g><svg viewBox="0 0 87.86390191067815 100.86417311174786" height="100.86417311174786" width="87.86390191067815"><g><svg xmlns="http://www.w3.org/2000/svg" xmlns:xlink="http://www.w3.org/1999/xlink" version="1.1" x="0" y="0" viewBox="10.1 5.2 78.4 90" enable-background="new 0 0 100 100" xml:space="preserve" height="100.86417311174786" width="87.86390191067815" class="icon-icon-0" data-fill-palette-color="accent" id="icon-0"><polygon fill-rule="evenodd" clip-rule="evenodd" fill="#aba944" points="88.5,28.2 68.4,59.9 68.5,22.3 " data-fill-palette-color="accent"></polygon><polygon fill-rule="evenodd" clip-rule="evenodd" fill="#aba944" points="49.8,5.2 67.2,38.5 34.7,19.6 " data-fill-palette-color="accent"></polygon><polygon fill-rule="evenodd" clip-rule="evenodd" fill="#aba944" points="67.8,38.3 67.8,22.3 60.8,24.5 " data-fill-palette-color="accent"></polygon><polygon fill-rule="evenodd" clip-rule="evenodd" fill="#aba944" points="88.2,73.2 50.6,71.7 83.2,52.9 " data-fill-palette-color="accent"></polygon><polygon fill-rule="evenodd" clip-rule="evenodd" fill="#aba944" points="69.1,60.3 82.8,52.3 77.4,47.4 " data-fill-palette-color="accent"></polygon><polygon fill-rule="evenodd" clip-rule="evenodd" fill="#aba944" points="48.7,95.2 31.5,61.9 63.9,80.9 " data-fill-palette-color="accent"></polygon><polygon fill-rule="evenodd" clip-rule="evenodd" fill="#aba944" points="50.5,72.2 64.2,80.2 65.8,73.1 " data-fill-palette-color="accent"></polygon><polygon fill-rule="evenodd" clip-rule="evenodd" fill="#aba944" points="10.1,72 30.5,40.4 30.1,78 " data-fill-palette-color="accent"></polygon><polygon fill-rule="evenodd" clip-rule="evenodd" fill="#aba944" points="30.9,62.1 30.8,78 37.8,75.8 " data-fill-palette-color="accent"></polygon><polygon fill-rule="evenodd" clip-rule="evenodd" fill="#aba944" points="11,27 48.5,28.9 15.8,47.3 " data-fill-palette-color="accent"></polygon><polygon fill-rule="evenodd" clip-rule="evenodd" fill="#aba944" points="30,40.1 16.1,47.9 21.5,52.9 " data-fill-palette-color="accent"></polygon><polygon fill-rule="evenodd" clip-rule="evenodd" fill="#aba944" points="48.2,28.3 34.5,20.2 32.9,27.4 " data-fill-palette-color="accent"></polygon></svg></g></svg></g></svg></g><defs></defs></svg><rect width="395.52" height="76.0714544478118" fill="none" stroke="none" visibility="hidden"></rect></g></svg></g></svg>